<svg xmlns="http://www.w3.org/2000/svg" viewBox="0 0 900 580" width="900" height="580">
  <defs>
    <marker id="mo" viewBox="0 0 10 10" refX="9" refY="5" markerWidth="7" markerHeight="7" orient="auto"><path d="M1 1L9 5L1 9" fill="none" stroke="#f97316" stroke-width="1.8" stroke-linecap="round" stroke-linejoin="round"/></marker>
    <marker id="mg" viewBox="0 0 10 10" refX="9" refY="5" markerWidth="7" markerHeight="7" orient="auto"><path d="M1 1L9 5L1 9" fill="none" stroke="#4ade80" stroke-width="1.8" stroke-linecap="round" stroke-linejoin="round"/></marker>
    <marker id="mb" viewBox="0 0 10 10" refX="9" refY="5" markerWidth="7" markerHeight="7" orient="auto"><path d="M1 1L9 5L1 9" fill="none" stroke="#60a5fa" stroke-width="1.8" stroke-linecap="round" stroke-linejoin="round"/></marker>
    <marker id="mt" viewBox="0 0 10 10" refX="9" refY="5" markerWidth="7" markerHeight="7" orient="auto"><path d="M1 1L9 5L1 9" fill="none" stroke="#34d399" stroke-width="1.8" stroke-linecap="round" stroke-linejoin="round"/></marker>
    <marker id="mc" viewBox="0 0 10 10" refX="9" refY="5" markerWidth="7" markerHeight="7" orient="auto"><path d="M1 1L9 5L1 9" fill="none" stroke="#22d3ee" stroke-width="1.8" stroke-linecap="round" stroke-linejoin="round"/></marker>
    <marker id="my" viewBox="0 0 10 10" refX="9" refY="5" markerWidth="7" markerHeight="7" orient="auto"><path d="M1 1L9 5L1 9" fill="none" stroke="#facc15" stroke-width="1.8" stroke-linecap="round" stroke-linejoin="round"/></marker>
    <marker id="mp" viewBox="0 0 10 10" refX="9" refY="5" markerWidth="7" markerHeight="7" orient="auto"><path d="M1 1L9 5L1 9" fill="none" stroke="#c084fc" stroke-width="1.8" stroke-linecap="round" stroke-linejoin="round"/></marker>
  </defs>

  <!-- Background -->
  <rect width="900" height="580" fill="#1e0a35" rx="16"/>
  <ellipse cx="220" cy="120" rx="280" ry="180" fill="#8b3cf7" fill-opacity="0.08"/>
  <ellipse cx="700" cy="460" rx="240" ry="160" fill="#1d4ed8" fill-opacity="0.08"/>

  <!-- Title -->
  <text x="450" y="34" text-anchor="middle" font-family="Arial, sans-serif" font-size="15" font-weight="700" fill="#e8d5ff" letter-spacing="0.6">End-to-End DevSecOps Pipeline · Tetris on AWS EKS</text>

  <!-- ══════════════════════════════
       NODE 1: App Code (bottom-left)
  ═══════════════════════════════ -->
  <rect x="30" y="450" width="110" height="54" rx="8" fill="#111827" stroke="#6b7280" stroke-width="1.5"/>
  <text x="85" y="473" text-anchor="middle" font-family="Arial, sans-serif" font-size="12" font-weight="700" fill="#e5e7eb">App Code</text>
  <text x="85" y="491" text-anchor="middle" font-family="Arial, sans-serif" font-size="10" fill="#9ca3af">GitHub repo</text>

  <!-- NODE 2: Jenkins Server EC2 (left-mid) -->
  <rect x="20" y="295" width="130" height="58" rx="8" fill="#2a1500" stroke="#f97316" stroke-width="1.8" stroke-dasharray="6 3"/>
  <text x="85" y="320" text-anchor="middle" font-family="Arial, sans-serif" font-size="12" font-weight="700" fill="#fb923c">Jenkins Server</text>
  <text x="85" y="338" text-anchor="middle" font-family="Arial, sans-serif" font-size="10" fill="#fed7aa">EC2 · Terraform</text>

  <!-- NODE 3: EKS Cluster (top-left) -->
  <rect x="20" y="60" width="220" height="140" rx="12" fill="#120d00" stroke="#f97316" stroke-width="2.2" stroke-dasharray="7 3"/>
  <text x="130" y="84" text-anchor="middle" font-family="Arial, sans-serif" font-size="11" font-weight="700" fill="#fb923c">Managed EKS Cluster</text>
  <!-- inner deployment 1 -->
  <rect x="34" y="94" width="88" height="92" rx="6" fill="#1a0a00" stroke="#c2410c" stroke-width="1.2"/>
  <text x="78" y="112" text-anchor="middle" font-family="Arial, sans-serif" font-size="9" font-weight="600" fill="#fb923c">Deployment</text>
  <rect x="42" y="118" width="72" height="15" rx="3" fill="#2a1200" stroke="#c2410c" stroke-width="0.6"/>
  <text x="78" y="130" text-anchor="middle" font-family="Arial, sans-serif" font-size="8.5" fill="#fed7aa">tetris pods</text>
  <rect x="42" y="137" width="72" height="15" rx="3" fill="#2a1200" stroke="#c2410c" stroke-width="0.6"/>
  <text x="78" y="149" text-anchor="middle" font-family="Arial, sans-serif" font-size="8.5" fill="#fed7aa">Service (ELB)</text>
  <!-- inner deployment 2 -->
  <rect x="134" y="94" width="88" height="92" rx="6" fill="#1a0a00" stroke="#c2410c" stroke-width="1.2"/>
  <text x="178" y="112" text-anchor="middle" font-family="Arial, sans-serif" font-size="9" font-weight="600" fill="#fb923c">Deployment</text>
  <rect x="142" y="118" width="72" height="15" rx="3" fill="#2a1200" stroke="#c2410c" stroke-width="0.6"/>
  <text x="178" y="130" text-anchor="middle" font-family="Arial, sans-serif" font-size="8.5" fill="#fed7aa">tetris pods</text>
  <rect x="142" y="137" width="72" height="15" rx="3" fill="#2a1200" stroke="#c2410c" stroke-width="0.6"/>
  <text x="178" y="149" text-anchor="middle" font-family="Arial, sans-serif" font-size="8.5" fill="#fed7aa">Service (ELB)</text>

  <!-- NODE 4: ArgoCD (top-center) -->
  <rect x="340" y="60" width="130" height="62" rx="8" fill="#001a14" stroke="#10b981" stroke-width="1.8"/>
  <circle cx="405" cy="79" r="9" fill="#064e3b" stroke="#10b981" stroke-width="1.4"/>
  <circle cx="405" cy="79" r="3.5" fill="#34d399"/>
  <text x="405" y="105" text-anchor="middle" font-family="Arial, sans-serif" font-size="12" font-weight="700" fill="#34d399">ArgoCD</text>
  <text x="405" y="119" text-anchor="middle" font-family="Arial, sans-serif" font-size="10" fill="#a7f3d0">GitOps · auto-sync</text>

  <!-- NODE 5: Updating image name -->
  <rect x="340" y="195" width="130" height="58" rx="8" fill="#111820" stroke="#facc15" stroke-width="1.6" stroke-dasharray="5 3"/>
  <text x="405" y="220" text-anchor="middle" font-family="Arial, sans-serif" font-size="12" font-weight="700" fill="#facc15">Updating</text>
  <text x="405" y="238" text-anchor="middle" font-family="Arial, sans-serif" font-size="10" fill="#fef08a">image name</text>

  <!-- NODE 6: Docker Image Scan (Trivy) -->
  <rect x="230" y="295" width="130" height="58" rx="8" fill="#001a14" stroke="#34d399" stroke-width="1.6"/>
  <text x="295" y="320" text-anchor="middle" font-family="Arial, sans-serif" font-size="12" font-weight="700" fill="#34d399">Docker Image</text>
  <text x="295" y="338" text-anchor="middle" font-family="Arial, sans-serif" font-size="10" fill="#a7f3d0">Scan · Trivy</text>

  <!-- NODE 7: DockerHub -->
  <rect x="380" y="295" width="130" height="58" rx="8" fill="#001833" stroke="#60a5fa" stroke-width="1.6"/>
  <text x="445" y="320" text-anchor="middle" font-family="Arial, sans-serif" font-size="12" font-weight="700" fill="#60a5fa">DockerHub</text>
  <text x="445" y="338" text-anchor="middle" font-family="Arial, sans-serif" font-size="10" fill="#bfdbfe">image pushed</text>

  <!-- NODE 8: Building Docker Image -->
  <rect x="540" y="295" width="140" height="58" rx="8" fill="#001833" stroke="#22d3ee" stroke-width="1.6"/>
  <text x="610" y="320" text-anchor="middle" font-family="Arial, sans-serif" font-size="12" font-weight="700" fill="#22d3ee">Building</text>
  <text x="610" y="338" text-anchor="middle" font-family="Arial, sans-serif" font-size="10" fill="#a5f3fc">Docker Image</text>

  <!-- NODE 9: SonarQube -->
  <rect x="160" y="405" width="130" height="58" rx="8" fill="#001233" stroke="#3b82f6" stroke-width="1.6"/>
  <text x="225" y="430" text-anchor="middle" font-family="Arial, sans-serif" font-size="12" font-weight="700" fill="#60a5fa">SonarQube</text>
  <text x="225" y="448" text-anchor="middle" font-family="Arial, sans-serif" font-size="10" fill="#bfdbfe">code quality</text>

  <!-- NODE 10: npm Installing Deps -->
  <rect x="310" y="405" width="120" height="58" rx="8" fill="#1a0808" stroke="#f87171" stroke-width="1.6" stroke-dasharray="5 3"/>
  <text x="370" y="430" text-anchor="middle" font-family="Arial, sans-serif" font-size="12" font-weight="700" fill="#f87171">npm</text>
  <text x="370" y="448" text-anchor="middle" font-family="Arial, sans-serif" font-size="10" fill="#fca5a5">install deps</text>

  <!-- NODE 11: OWASP -->
  <rect x="450" y="405" width="130" height="58" rx="8" fill="#1a0000" stroke="#ef4444" stroke-width="1.6"/>
  <text x="515" y="430" text-anchor="middle" font-family="Arial, sans-serif" font-size="12" font-weight="700" fill="#f87171">OWASP</text>
  <text x="515" y="448" text-anchor="middle" font-family="Arial, sans-serif" font-size="10" fill="#fecaca">dep check</text>

  <!-- NODE 12: File Scan (Trivy) -->
  <rect x="600" y="405" width="110" height="58" rx="8" fill="#001a14" stroke="#34d399" stroke-width="1.6"/>
  <text x="655" y="430" text-anchor="middle" font-family="Arial, sans-serif" font-size="12" font-weight="700" fill="#34d399">File Scan</text>
  <text x="655" y="448" text-anchor="middle" font-family="Arial, sans-serif" font-size="10" fill="#a7f3d0">Trivy</text>

  <!-- NODE 13: Live Tetris App -->
  <rect x="730" y="60" width="140" height="140" rx="10" fill="#0d0d1a" stroke="#4ade80" stroke-width="2.2"/>
  <text x="800" y="82" text-anchor="middle" font-family="Arial, sans-serif" font-size="9" fill="#86efac">lb.amazonaws.com</text>
  <!-- tetris grid -->
  <rect x="748" y="90"  width="11" height="11" rx="1" fill="#eab308"/>
  <rect x="761" y="90"  width="11" height="11" rx="1" fill="#eab308"/>
  <rect x="774" y="90"  width="11" height="11" rx="1" fill="#1a1a2e"/>
  <rect x="787" y="90"  width="11" height="11" rx="1" fill="#3b82f6"/>
  <rect x="748" y="103" width="11" height="11" rx="1" fill="#22c55e"/>
  <rect x="761" y="103" width="11" height="11" rx="1" fill="#22c55e"/>
  <rect x="774" y="103" width="11" height="11" rx="1" fill="#a855f7"/>
  <rect x="787" y="103" width="11" height="11" rx="1" fill="#a855f7"/>
  <rect x="748" y="116" width="11" height="11" rx="1" fill="#ef4444"/>
  <rect x="761" y="116" width="11" height="11" rx="1" fill="#1a1a2e"/>
  <rect x="774" y="116" width="11" height="11" rx="1" fill="#eab308"/>
  <rect x="787" y="116" width="11" height="11" rx="1" fill="#22c55e"/>
  <rect x="748" y="129" width="11" height="11" rx="1" fill="#ef4444"/>
  <rect x="761" y="129" width="11" height="11" rx="1" fill="#3b82f6"/>
  <rect x="774" y="129" width="11" height="11" rx="1" fill="#eab308"/>
  <rect x="787" y="129" width="11" height="11" rx="1" fill="#ef4444"/>
  <rect x="748" y="142" width="11" height="11" rx="1" fill="#a855f7"/>
  <rect x="761" y="142" width="11" height="11" rx="1" fill="#22c55e"/>
  <rect x="774" y="142" width="11" height="11" rx="1" fill="#3b82f6"/>
  <rect x="787" y="142" width="11" height="11" rx="1" fill="#eab308"/>
  <!-- scores -->
  <rect x="810" y="90"  width="48" height="20" rx="3" fill="#0a0a1a" stroke="#4ade80" stroke-width="0.8"/>
  <text x="834" y="104" text-anchor="middle" font-family="Arial, sans-serif" font-size="8" fill="#4ade80">SCORE 0</text>
  <rect x="810" y="114" width="48" height="20" rx="3" fill="#0a0a1a" stroke="#4ade80" stroke-width="0.8"/>
  <text x="834" y="128" text-anchor="middle" font-family="Arial, sans-serif" font-size="8" fill="#4ade80">LEVEL 1</text>
  <rect x="810" y="138" width="48" height="20" rx="3" fill="#0a0a1a" stroke="#4ade80" stroke-width="0.8"/>
  <text x="834" y="152" text-anchor="middle" font-family="Arial, sans-serif" font-size="8" fill="#4ade80">LINES 0</text>
  <text x="800" y="192" text-anchor="middle" font-family="Arial, sans-serif" font-size="10" font-weight="700" fill="#4ade80">Tetris V1 &amp; V2</text>

  <!-- ══════════════════════════════
       ARROWS — exact flow
  ═══════════════════════════════ -->

  <!-- 1. App Code → Jenkins Server (up) -->
  <path d="M85 450 L85 355" fill="none" stroke="#f97316" stroke-width="2" marker-end="url(#mo)"/>
  <text x="92" y="415" font-family="Arial, sans-serif" font-size="9" fill="#f97316">Creating Jenkins</text>
  <text x="92" y="427" font-family="Arial, sans-serif" font-size="9" fill="#f97316">via Terraform</text>

  <!-- 2. Jenkins → EKS (up, left side) -->
  <path d="M85 295 Q85 230 100 202" fill="none" stroke="#f97316" stroke-width="2" marker-end="url(#mo)"/>
  <text x="16" y="258" font-family="Arial, sans-serif" font-size="9" fill="#f97316">Creating EKS &amp;</text>
  <text x="16" y="270" font-family="Arial, sans-serif" font-size="9" fill="#f97316">NodeGroup via TF</text>

  <!-- 3. Jenkins → SonarQube (right then down) -->
  <path d="M150 324 Q190 324 190 405" fill="none" stroke="#60a5fa" stroke-width="2" marker-end="url(#mb)"/>

  <!-- 4. SonarQube → npm (right) -->
  <path d="M290 434 L308 434" fill="none" stroke="#c084fc" stroke-width="2" marker-end="url(#mp)"/>

  <!-- 5. npm → OWASP (right) -->
  <path d="M430 434 L448 434" fill="none" stroke="#c084fc" stroke-width="2" marker-end="url(#mp)"/>

  <!-- 6. OWASP → File Scan (right) -->
  <path d="M580 434 L598 434" fill="none" stroke="#34d399" stroke-width="2" marker-end="url(#mt)"/>

  <!-- 7. File Scan → Building Docker Image (up) -->
  <path d="M655 405 L655 370 Q655 355 682 355" fill="none" stroke="#22d3ee" stroke-width="2" marker-end="url(#mc)"/>

  <!-- 8. Building Docker → DockerHub (left, "image pushed") -->
  <path d="M540 324 L512 324" fill="none" stroke="#60a5fa" stroke-width="2" marker-end="url(#mb)"/>
  <text x="516" y="316" font-family="Arial, sans-serif" font-size="9" fill="#60a5fa">image pushed</text>

  <!-- 9. DockerHub → Docker Image Scan (left) -->
  <path d="M380 324 L362 324" fill="none" stroke="#34d399" stroke-width="2" marker-end="url(#mt)"/>

  <!-- 10. Docker Image Scan → Updating image name (up-right curved) -->
  <path d="M295 295 Q295 250 338 253" fill="none" stroke="#facc15" stroke-width="2" marker-end="url(#my)"/>

  <!-- 11. Updating image name → ArgoCD (up) -->
  <path d="M405 195 L405 124" fill="none" stroke="#4ade80" stroke-width="2" marker-end="url(#mg)"/>

  <!-- 12. ArgoCD → EKS Cluster (left) -->
  <path d="M340 91 Q280 91 242 110" fill="none" stroke="#34d399" stroke-width="2" marker-end="url(#mt)"/>

  <!-- 13. EKS → Live Tetris (right along top) -->
  <path d="M240 95 Q490 70 728 110" fill="none" stroke="#4ade80" stroke-width="2" stroke-dasharray="6 3" marker-end="url(#mg)"/>

  <!-- Footer -->
  <text x="450" y="565" text-anchor="middle" font-family="Arial, sans-serif" font-size="9" fill="#6b7280" letter-spacing="0.4">Jenkins · ArgoCD · SonarQube · OWASP · Trivy · Docker · Terraform · AWS EKS</text>
</svg>
